<?xml version="1.0" standalone="no"?>
<!DOCTYPE svg PUBLIC "-//W3C//DTD SVG 20010904//EN"
 "http://www.w3.org/TR/2001/REC-SVG-20010904/DTD/svg10.dtd">
<svg version="1.0" xmlns="http://www.w3.org/2000/svg"
 width="500.000000pt" height="500.000000pt" viewBox="0 0 500.000000 500.000000"
 preserveAspectRatio="xMidYMid meet">

<g transform="translate(0.000000,500.000000) scale(0.100000,-0.100000)"
fill="#000000" stroke="none">
<path d="M2289 3593 c-145 -131 -285 -456 -354 -823 -21 -108 -45 -303 -45
-359 l0 -48 -67 -18 c-130 -34 -211 -74 -197 -96 11 -18 60 -8 114 22 30 17
73 36 96 43 l41 13 6 -181 c6 -174 21 -334 32 -344 3 -3 9 -1 15 4 5 5 5 40
-1 89 -6 44 -11 161 -12 259 l-2 180 35 8 c19 4 105 19 190 33 85 14 167 28
182 31 l28 6 2 -221 c4 -297 21 -300 28 -4 3 122 8 224 10 226 6 5 272 38 276
34 1 -1 29 -74 63 -162 l60 -160 -59 -56 c-103 -99 -139 -211 -85 -264 13 -14
35 -25 48 -25 38 0 89 41 116 95 23 44 26 61 25 143 l-2 94 52 33 c69 43 170
94 230 115 28 9 52 22 54 30 12 36 -176 -38 -303 -119 -35 -22 -51 -28 -54
-19 -2 7 -32 91 -67 185 -126 339 -158 534 -115 702 11 46 32 103 46 126 56
97 194 219 296 264 110 49 186 47 240 -5 16 -15 32 -25 36 -21 14 15 -18 56
-62 77 -39 19 -56 21 -103 16 -142 -16 -347 -166 -439 -323 -81 -138 -83 -380
-4 -631 l18 -60 -96 -12 c-53 -6 -114 -14 -135 -17 l-39 -6 7 567 c7 509 6
570 -9 592 -22 34 -48 30 -96 -13z m78 -78 c2 -44 0 -303 -5 -575 l-7 -495
-185 -31 c-102 -17 -200 -34 -217 -38 l-33 -8 0 46 c0 63 26 260 51 385 64
320 181 599 312 747 68 76 81 71 84 -31z m428 -1592 c-6 -35 -45 -87 -77 -104
-29 -15 -68 13 -68 49 0 44 47 126 98 174 l47 43 3 -65 c2 -36 0 -79 -3 -97z"/>
<path d="M2436 1572 l-19 -27 24 22 c12 12 21 24 18 27 -2 2 -13 -8 -23 -22z"/>
<path d="M1564 1455 c0 -71 1 -109 3 -82 l4 47 78 0 c66 0 83 4 102 21 l24 21
-25 -16 c-17 -11 -48 -16 -102 -16 l-77 0 -4 78 c-1 42 -3 19 -3 -53z"/>
<path d="M1715 1573 c34 -9 55 -35 57 -72 l1 -36 4 34 c5 39 -28 82 -61 80
-20 -1 -20 -1 -1 -6z"/>
<path d="M1888 1513 c6 -2 18 -2 25 0 6 3 1 5 -13 5 -14 0 -19 -2 -12 -5z"/>
<path d="M2168 1513 c7 -3 16 -2 19 1 4 3 -2 6 -13 5 -11 0 -14 -3 -6 -6z"/>
<path d="M2408 1513 c6 -2 18 -2 25 0 6 3 1 5 -13 5 -14 0 -19 -2 -12 -5z"/>
<path d="M2708 1513 c6 -2 18 -2 25 0 6 3 1 5 -13 5 -14 0 -19 -2 -12 -5z"/>
<path d="M2948 1513 c7 -3 16 -2 19 1 4 3 -2 6 -13 5 -11 0 -14 -3 -6 -6z"/>
<path d="M3188 1513 c6 -2 18 -2 25 0 6 3 1 5 -13 5 -14 0 -19 -2 -12 -5z"/>
<path d="M1948 1492 c9 -10 19 -17 21 -16 6 5 -20 34 -30 34 -5 0 -1 -8 9 -18z"/>
<path d="M2024 1420 c0 -52 1 -74 3 -47 2 26 2 68 0 95 -2 26 -3 4 -3 -48z"/>
<path d="M2111 1486 c-13 -14 -21 -31 -18 -38 4 -9 6 -8 6 4 1 9 13 26 27 37
15 12 22 21 17 21 -5 0 -20 -11 -32 -24z"/>
<path d="M2365 1500 c-3 -6 1 -7 9 -4 18 7 21 14 7 14 -6 0 -13 -4 -16 -10z"/>
<path d="M2451 1507 c2 -1 15 -11 29 -22 l25 -20 -19 23 c-11 12 -24 22 -29
22 -6 0 -8 -1 -6 -3z"/>
<path d="M2654 1488 l-19 -23 25 20 c14 11 27 21 29 22 2 2 0 3 -6 3 -5 0 -18
-10 -29 -22z"/>
<path d="M2766 1498 c12 -5 27 -20 32 -32 6 -11 11 -15 11 -8 1 6 -8 21 -19
32 -11 11 -26 20 -32 19 -7 0 -3 -5 8 -11z"/>
<path d="M2890 1490 c-11 -11 -20 -26 -19 -32 0 -7 5 -3 11 8 5 12 20 27 32
32 11 6 15 11 9 11 -7 1 -22 -8 -33 -19z"/>
<path d="M3039 1488 c-2 -66 1 -182 6 -186 3 -3 5 43 5 101 0 59 -2 107 -5
107 -3 0 -5 -10 -6 -22z"/>
<path d="M3125 1490 c-26 -28 -15 -31 12 -3 12 13 19 23 14 23 -4 0 -16 -9
-26 -20z"/>
<path d="M3258 1494 c31 -22 29 -52 -5 -57 l-28 -4 28 -2 c34 -1 37 -34 5 -70
-22 -25 -22 -25 -1 -8 21 18 21 18 26 -5 2 -13 5 11 6 53 1 62 -2 79 -17 92
-10 10 -23 17 -28 17 -4 0 2 -7 14 -16z"/>
<path d="M2335 1469 c-4 -6 -5 -12 -2 -15 2 -3 7 2 10 11 7 17 1 20 -8 4z"/>
<path d="M1830 1451 c0 -10 19 -25 25 -20 1 2 -3 10 -11 17 -8 7 -14 8 -14 3z"/>
<path d="M2501 1444 c0 -11 3 -14 6 -6 3 7 2 16 -1 19 -3 4 -6 -2 -5 -13z"/>
<path d="M2633 1420 c0 -25 2 -35 4 -22 2 12 2 32 0 45 -2 12 -4 2 -4 -23z"/>
<path d="M3168 1423 c7 -3 16 -2 19 1 4 3 -2 6 -13 5 -11 0 -14 -3 -6 -6z"/>
<path d="M1908 1413 c7 -3 16 -2 19 1 4 3 -2 6 -13 5 -11 0 -14 -3 -6 -6z"/>
<path d="M3119 1403 c-13 -17 -13 -17 6 -3 11 8 22 16 24 17 2 2 0 3 -6 3 -6
0 -17 -8 -24 -17z"/>
<path d="M1952 1396 c7 -8 15 -12 17 -11 5 6 -10 25 -20 25 -5 0 -4 -6 3 -14z"/>
<path d="M2501 1394 c0 -11 3 -14 6 -6 3 7 2 16 -1 19 -3 4 -6 -2 -5 -13z"/>
<path d="M2091 1389 c-1 -16 39 -59 54 -59 5 0 -1 7 -13 16 -13 9 -27 26 -32
38 -6 14 -9 16 -9 5z"/>
<path d="M2331 1389 c-1 -16 39 -59 54 -59 5 0 -1 7 -13 16 -13 9 -27 26 -32
38 -6 14 -9 16 -9 5z"/>
<path d="M2796 1373 c-6 -14 -5 -15 5 -6 7 7 10 15 7 18 -3 3 -9 -2 -12 -12z"/>
<path d="M2870 1381 c0 -6 4 -13 10 -16 6 -3 7 1 4 9 -7 18 -14 21 -14 7z"/>
<path d="M1948 1348 c-10 -10 -14 -18 -9 -18 10 0 36 29 30 34 -2 1 -12 -6
-21 -16z"/>
<path d="M2471 1350 c-13 -11 -19 -20 -14 -20 6 0 18 9 28 20 23 25 17 25 -14
0z"/>
<path d="M2657 1349 c12 -12 24 -21 27 -18 2 2 -8 13 -22 23 l-27 19 22 -24z"/>
<path d="M2230 1345 c-14 -8 -20 -14 -14 -15 5 0 19 7 30 15 24 18 16 19 -16
0z"/>
<path d="M3122 1344 c10 -10 20 -16 22 -13 3 3 -5 11 -17 18 -21 13 -21 12 -5
-5z"/>
<path d="M1837 1339 c7 -7 15 -10 18 -7 3 3 -2 9 -12 12 -14 6 -15 5 -6 -5z"/>
<path d="M2760 1340 c-9 -6 -10 -10 -3 -10 6 0 15 5 18 10 8 12 4 12 -15 0z"/>
<path d="M2900 1340 c8 -5 20 -10 25 -10 6 0 3 5 -5 10 -8 5 -19 10 -25 10 -5
0 -3 -5 5 -10z"/>
<path d="M1888 1323 c7 -3 16 -2 19 1 4 3 -2 6 -13 5 -11 0 -14 -3 -6 -6z"/>
<path d="M2871 1309 c-1 -17 29 -49 45 -49 5 0 1 5 -9 11 -10 6 -22 20 -27 32
-6 15 -9 17 -9 6z"/>
<path d="M3016 1275 c-11 -8 -15 -15 -9 -15 6 0 16 7 23 15 16 19 11 19 -14 0z"/>
<path d="M2943 1253 c9 -2 25 -2 35 0 9 3 1 5 -18 5 -19 0 -27 -2 -17 -5z"/>
</g>
</svg>
